<svg width="33" height="25" viewBox="0 0 33 25" fill="none" xmlns="http://www.w3.org/2000/svg">
<path d="M10.9441 0.549999C12.4971 0.420585 13.7588 0.905878 14.7294 2.00588L9.77941 11.1294L12.5941 20.1559C11.3 22.1618 9.55294 23.3588 7.35294 23.7471C5.21765 24.1353 3.53529 23.6176 2.30588 22.1941C1.20588 15.3353 4.08529 8.12059 10.9441 0.549999ZM28.2206 0.549999C29.7735 0.420585 31.0353 0.905878 32.0059 2.00588L27.0559 11.1294L29.8706 20.1559C28.5765 22.1618 26.8294 23.3588 24.6294 23.7471C22.4941 24.1353 20.8118 23.6176 19.5824 22.1941C18.4824 15.3353 21.3618 8.12059 28.2206 0.549999Z" fill="black"/>
</svg>
