<svg width="20" height="16" viewBox="0 0 20 16" fill="none" xmlns="http://www.w3.org/2000/svg">
<path d="M6.43542 0.885937C7.39638 0.805856 8.17716 1.10616 8.77776 1.78684L5.7147 7.43248L7.45644 13.0181C6.65564 14.2593 5.57456 15 4.2132 15.2403C2.89188 15.4805 1.85084 15.1602 1.09008 14.2793C0.409401 10.0351 2.19118 5.57062 6.43542 0.885937ZM17.1261 0.885937C18.0871 0.805856 18.8678 1.10616 19.4684 1.78684L16.4054 7.43248L18.1471 13.0181C17.3463 14.2593 16.2652 15 14.9039 15.2403C13.5826 15.4805 12.5415 15.1602 11.7808 14.2793C11.1001 10.0351 12.8819 5.57062 17.1261 0.885937Z" fill="black"/>
</svg>
