<svg width="325" height="200" viewBox="0 0 325 200" fill="none" xmlns="http://www.w3.org/2000/svg">
<path d="M321.974 1.38589C321.291 2.34947 319.193 5.88258 317.29 9.22299C315.387 12.5634 310.946 19.1158 307.335 23.7409C301.577 31.2569 299.722 33.184 290.841 40.8284C285.327 45.5821 276.592 52.9053 271.37 57.1451C266.149 61.3206 260.537 66.3954 258.926 68.3226C252.485 75.967 249.118 78.7935 236.479 87.1446C224.718 94.9174 217.301 102.241 203.491 119.457C194.512 130.698 191.828 133.011 184.947 135.773C180.897 137.315 178.799 138.664 175.529 141.555C170.503 145.987 164.598 147.786 149.324 149.585C130.586 151.704 125.706 153.053 114.092 158.963C98.964 166.608 94.2793 168.471 86.3739 169.82C84.0315 170.205 74.2718 173.481 64.1704 177.271C37.2335 187.421 33.3784 188.321 14.3956 188.899C1.56156 189.22 0 189.605 0 192.239C0 194.166 2.19595 195.58 7.61261 197.185C16.1036 199.691 20.5443 200.205 29.7673 199.819C40.015 199.305 46.2613 198.149 55.3866 195.066C59.1441 193.845 64.3168 192.239 66.8544 191.597C73.003 189.991 76.0773 188.642 87.5938 182.346C98.964 176.115 102.185 174.638 107.845 172.967C110.139 172.325 115.068 170.334 118.874 168.599C132.635 162.24 144.688 159.092 158.157 158.45C165.916 158.064 166.355 158.128 168.161 159.477C169.332 160.377 171.577 163.524 173.968 167.636C178.018 174.573 179.531 178.107 179.58 180.612C179.58 182.668 180.458 184.595 181.288 184.595C181.678 184.595 182.459 183.31 183.044 181.704C184.215 178.364 185.338 177.143 188.071 176.179C190.364 175.344 193.926 170.783 195.878 166.287C198.221 160.762 199.148 156.008 199.587 147.4C199.831 142.968 200.368 138.022 200.758 136.48C203.101 127.936 212.616 117.465 230.135 104.104C234.137 101.084 239.163 97.1016 241.31 95.3029C243.457 93.5042 250.289 88.7505 256.438 84.7035C262.635 80.6564 268.442 76.6736 269.369 75.8385C270.297 75.0034 275.372 70.5067 280.593 65.7531C293.915 53.8047 297.331 50.1431 306.017 38.7728C312.215 30.6787 314.313 27.4026 317.436 21.1072C321.535 12.8204 325 4.46933 325 2.73489C325 2.15674 324.61 1.25742 324.122 0.67926C323.292 -0.348557 323.146 -0.284317 321.974 1.38589Z" fill="black"/>
</svg>
